<svg aria-hidden="true" style="position: absolute; width: 0; height: 0; overflow: hidden;" version="1.1" xmlns="http://www.w3.org/2000/svg" xmlns:xlink="http://www.w3.org/1999/xlink">
<defs>
<symbol id="icon-close" viewBox="0 0 34 32">
<path fill="none" stroke="#fff" style="stroke: var(--color1, #fff)" stroke-linejoin="miter" stroke-linecap="butt" stroke-miterlimit="4" stroke-width="4" d="M2.004 30.496l28.991-28.991"></path>
<path fill="none" stroke="#fff" style="stroke: var(--color1, #fff)" stroke-linejoin="miter" stroke-linecap="butt" stroke-miterlimit="4" stroke-width="4" d="M30.996 30.496l-28.991-28.991"></path>
</symbol>
<symbol id="icon-logo" viewBox="0 0 26 32">
<path fill="#ff6b09" style="fill: var(--color2, #ff6b09)" d="M22.641 16.080c-0.275-0.615-0.654-1.222-1.208-1.922-1.398-1.757-1.824-5.676-1.829-5.714-0.019-0.188-0.152-0.343-0.327-0.399-0.18-0.056-0.374-0.005-0.502 0.136-1.668 1.865-0.967 4.746-0.588 5.897 0.104 0.315 0.218 0.686 0.298 1.062 0.616 3.040-0.573 4.417-0.853 4.694-0.27 0.075-0.455 0.038-0.625-0.146-0.587-0.644-0.782-2.753-0.507-5.502 0.057-0.559 0.043-1.062-0.038-1.532-0.58-3.379-2.704-5.546-3.245-6.306-1.488-2.199-1.639-5.859-1.644-5.892-0.005-0.174-0.104-0.329-0.261-0.404-0.152-0.075-0.336-0.066-0.479 0.033-2.483 1.687-2.269 5.751-1.924 8.021 0.081 0.526 0.237 1.062 0.507 1.739 0.962 2.42-0.19 5.544-0.199 5.573s-0.019 0.052-0.024 0.080c-0.147 0.771-0.393 1.231-0.668 1.231-0.028 0-0.057-0.005-0.090-0.014-0.336-0.070-0.512-0.428-0.516-0.738-0.019-4.008-4.041-5.357-4.084-5.371-0.18-0.056-0.379-0.005-0.502 0.141-0.128 0.146-0.152 0.348-0.066 0.517 0.047 0.099 0.199 0.531 0.095 2.058-0.090 1.372-0.341 2.73-0.744 4.032-0.957 3.12-0.805 6.076-0.796 6.216 0.736 8.002 12.245 9.404 19.075 4.896 0.748-0.493 1.36-1.057 1.81-1.677 2.521-3.477 1.038-8.199-0.066-10.708zM5.135 23.725c0.014 0.258-0.185 0.479-0.445 0.493h-0.028c-0.251 0-0.46-0.193-0.474-0.442-0.043-0.686-0.033-1.405 0.019-2.185 0.019-0.258 0.246-0.451 0.507-0.437 0.261 0.019 0.46 0.244 0.441 0.503-0.052 0.742-0.062 1.419-0.019 2.068zM5.367 19.562c-0.028 0.24-0.232 0.414-0.469 0.414-0.019 0-0.038 0-0.062-0.005-0.256-0.033-0.441-0.263-0.412-0.521l0.227-1.814c0.033-0.254 0.265-0.437 0.531-0.409 0.261 0.033 0.445 0.268 0.412 0.526l-0.227 1.809z"></path>
<path fill="#ff6b09" style="fill: var(--color2, #ff6b09)" d="M19.436 6.428c-0.259-0.040-0.436-0.279-0.396-0.535 0.030-0.191 0.201-1.168 0.665-1.66 0.179-0.189 0.478-0.199 0.67-0.021s0.2 0.475 0.021 0.664c-0.196 0.208-0.364 0.804-0.42 1.16-0.040 0.254-0.278 0.431-0.541 0.392z"></path>
<path fill="#ff6b09" style="fill: var(--color2, #ff6b09)" d="M2.163 8.769c-0.091-0.349-0.316-0.926-0.532-1.114-0.197-0.171-0.217-0.468-0.044-0.663s0.471-0.215 0.669-0.044c0.511 0.444 0.777 1.4 0.826 1.587 0.065 0.251-0.088 0.507-0.341 0.572-0.259 0.065-0.513-0.091-0.577-0.338z"></path>
</symbol>
<symbol id="icon-menu" viewBox="0 0 48 32">
<path stroke-linejoin="miter" stroke-linecap="butt" stroke-miterlimit="4" stroke-width="4.5714" d="M0 2.286h46.857"></path>
<path stroke-linejoin="miter" stroke-linecap="butt" stroke-miterlimit="4" stroke-width="4.5714" d="M0 16h46.857"></path>
<path stroke-linejoin="miter" stroke-linecap="butt" stroke-miterlimit="4" stroke-width="4.5714" d="M0 29.714h46.857"></path>
</symbol>
</defs>
</svg>